<?xml version="1.0" standalone="no"?>
<!DOCTYPE svg PUBLIC "-//W3C//DTD SVG 20010904//EN"
 "http://www.w3.org/TR/2001/REC-SVG-20010904/DTD/svg10.dtd">
<svg version="1.0" xmlns="http://www.w3.org/2000/svg"
 width="260.000000pt" height="260.000000pt" viewBox="0 0 260.000000 260.000000"
 preserveAspectRatio="xMidYMid meet">
<metadata>
Created by potrace 1.11, written by Peter Selinger 2001-2013
</metadata>
<g transform="translate(0.000000,260.000000) scale(0.100000,-0.100000)"
fill="#000000" stroke="none">
<path d="M1317 2474 c-1 -1 -47 -4 -102 -7 -103 -6 -117 -8 -221 -32 -201 -46
-422 -173 -578 -333 -113 -115 -196 -240 -260 -389 -27 -63 -63 -180 -58 -190
0 -2 -4 -17 -9 -35 -22 -74 -31 -314 -16 -413 50 -331 199 -593 454 -798 461
-373 1140 -355 1583 40 279 248 423 582 414 956 -2 67 -5 133 -8 147 -12 70
-17 91 -25 112 -5 13 -9 28 -10 33 -4 27 -25 94 -38 125 -50 110 -76 162 -114
220 -23 36 -44 67 -48 70 -3 3 -18 21 -33 40 -81 108 -247 243 -380 311 -122
62 -267 110 -370 124 -93 12 -178 21 -181 19z m149 -187 c5 -3 26 -8 47 -11
120 -19 310 -107 422 -194 147 -116 271 -273 329 -417 16 -38 32 -79 37 -90 4
-11 15 -49 23 -85 100 -420 -66 -866 -414 -1111 -63 -45 -155 -99 -166 -99 -4
0 -3 39 1 88 7 93 15 353 15 492 l0 85 48 30 c68 42 193 173 221 231 12 27 28
58 33 68 18 34 19 150 2 208 -28 94 -85 189 -157 261 -57 58 -71 78 -83 124
-21 83 -70 175 -116 221 -22 23 -46 42 -53 42 -12 0 -40 -28 -68 -70 -55 -80
-65 -99 -73 -133 l-9 -39 -106 0 c-111 0 -173 -9 -226 -33 -39 -19 -43 -19
-43 0 0 23 -27 62 -104 147 -73 81 -86 91 -112 81 -16 -6 -110 -194 -134 -268
-17 -51 -14 -125 6 -175 15 -38 15 -44 -7 -112 -29 -95 -31 -141 -6 -208 26
-71 59 -119 141 -205 l66 -68 -25 -36 c-14 -20 -87 -100 -162 -177 -76 -78
-167 -178 -203 -222 -36 -45 -70 -81 -75 -82 -12 0 -76 81 -123 155 -72 115
-134 290 -148 421 -12 108 -7 277 10 333 3 9 7 27 10 41 9 54 59 189 96 257
158 294 458 507 775 549 22 3 41 7 43 9 6 6 279 -2 288 -8z"/>
</g>
</svg>
